<?xml version="1.0" standalone="no"?>
<!DOCTYPE svg PUBLIC "-//W3C//DTD SVG 20010904//EN"
 "http://www.w3.org/TR/2001/REC-SVG-20010904/DTD/svg10.dtd">
<svg version="1.0" xmlns="http://www.w3.org/2000/svg"
 width="700.000000pt" height="700.000000pt" viewBox="0 0 700.000000 700.000000"
 preserveAspectRatio="xMidYMid meet">
<metadata>
Created by potrace 1.14, written by Peter Selinger 2001-2017
</metadata>
<g transform="translate(0.000000,700.000000) scale(0.100000,-0.100000)"
fill="#000000" stroke="none">
<path d="M4260 6777 c-3 -3 -34 -7 -70 -11 -110 -11 -162 -20 -255 -43 -33 -8
-67 -16 -75 -18 -65 -14 -317 -112 -395 -155 -102 -56 -138 -78 -205 -123
-330 -221 -602 -549 -757 -912 -50 -119 -103 -286 -118 -376 -3 -19 -8 -41
-10 -49 -2 -8 -6 -32 -9 -52 -3 -21 -8 -53 -11 -70 -12 -81 -16 -143 -16 -278
0 -80 2 -154 5 -165 2 -11 7 -51 10 -90 14 -134 80 -390 135 -518 l21 -48
-643 -638 c-1492 -1485 -1491 -1484 -1520 -1539 -65 -122 -69 -167 -52 -602 4
-102 8 -213 9 -247 0 -35 4 -63 8 -63 6 0 61 -87 64 -100 0 -3 4 -14 8 -25 16
-41 25 -71 36 -111 5 -23 17 -45 25 -48 8 -3 77 -49 152 -102 139 -98 177
-119 229 -128 16 -3 54 -10 84 -16 103 -20 155 -25 280 -25 142 0 172 4 251
34 105 40 234 159 356 330 114 158 165 289 159 411 -10 203 132 311 334 255
121 -34 218 -8 298 79 80 87 93 137 80 309 -7 85 12 162 57 237 72 118 160
165 329 175 164 11 266 39 350 99 25 18 134 118 242 222 107 104 197 190 198
192 2 2 30 -8 62 -21 98 -41 306 -104 369 -112 11 -2 47 -8 80 -13 33 -6 78
-14 100 -18 22 -4 122 -8 222 -9 195 -2 345 14 513 56 47 11 92 22 100 24 48
11 210 74 306 120 185 88 295 159 462 299 379 319 598 755 651 1296 8 76 6
408 -2 445 -3 11 -8 45 -12 75 -4 30 -9 64 -11 75 -2 11 -6 34 -9 50 -11 64
-28 134 -57 230 -111 371 -294 688 -545 941 -169 172 -448 406 -538 451 -16 9
-37 21 -45 28 -22 18 -163 92 -245 127 -136 58 -366 125 -492 143 -23 3 -57 8
-75 11 -42 7 -412 16 -418 11z m860 -1501 c57 -8 151 -42 162 -58 12 -20 28
-107 31 -173 4 -69 -13 -158 -43 -235 -65 -165 -234 -305 -408 -337 -102 -19
-296 4 -341 40 -32 27 -59 152 -54 247 15 258 209 474 463 516 19 3 36 7 37 8
4 4 106 -1 153 -8z"/>
</g>
</svg>
